<?xml version="1.0" encoding="UTF-8"?>
<svg id="Camada_1" data-name="Camada 1" xmlns="http://www.w3.org/2000/svg" version="1.1" xmlns:xlink="http://www.w3.org/1999/xlink" viewBox="0 0 810 810">
  <defs>
    <style>
      .cls-1 {
        fill: none;
      }

      .cls-1, .cls-2 {
        stroke-width: 0px;
      }

      .cls-2 {
        fill: #450c7e;
      }

      .cls-3 {
        clip-path: url(#clippath);
      }
    </style>
    <clipPath id="clippath">
      <rect class="cls-1" x="59.4" y="57.4" width="691" height="669.2"/>
    </clipPath>
  </defs>
  <g class="cls-3">
    <path class="cls-2" d="M736.3,605.4l-102.7-102.7c-15.4-15.4-40.5-15.4-56,0l-49,49c-74.3-44.1-226.6-196.3-270.7-270.7l49-49c15.4-15.4,15.4-40.5,0-56l-102.6-102.6c-15.4-15.4-40.7-15.4-56.1,0-79.5,79.6-88.8,205.7-21.4,295.9.1.1,117.3,167.1,278,287,21.5,12.5,73.1,71.5,171.1,71.5s117.9-23.9,160.4-66.4c15.4-15.6,15.4-40.5,0-56.1Z"/>
    <path class="cls-2" d="M578.6,404c7.3,0,13.2-5.9,13.2-13.2,0-94.6-77-171.6-171.6-171.6s-13.2,5.9-13.2,13.2,5.9,13.2,13.2,13.2c80.1,0,145.2,65.1,145.2,145.2s5.8,13.2,13.2,13.2Z"/>
    <path class="cls-2" d="M402.7,284.2c-7.3,0-13.2,5.9-13.2,13.2s5.9,13.2,13.2,13.2c53.7,0,97.4,43.7,97.4,97.4s5.9,13.2,13.2,13.2,13.2-5.9,13.2-13.2c0-68.2-55.6-123.8-123.8-123.8Z"/>
    <path class="cls-2" d="M397.9,164.9c136.9,0,248.2,111.3,248.2,248.2s5.9,13.2,13.2,13.2,13.2-5.9,13.2-13.2c0-151.4-123.2-274.6-274.6-274.6s-13.2,5.9-13.2,13.2,5.9,13.2,13.2,13.2Z"/>
  </g>
</svg>